<?xml version="1.0" encoding="UTF-8" standalone="no"?>
<!DOCTYPE svg PUBLIC "-//W3C//DTD SVG 1.1//EN" "http://www.w3.org/Graphics/SVG/1.1/DTD/svg11.dtd">
<svg width="100%" height="100%" viewBox="0 0 800 224" version="1.1" xmlns="http://www.w3.org/2000/svg" xmlns:xlink="http://www.w3.org/1999/xlink" xml:space="preserve" xmlns:serif="http://www.serif.com/" style="fill-rule:evenodd;clip-rule:evenodd;stroke-linejoin:round;stroke-miterlimit:2;">
    <g id="Artboard1" transform="matrix(1,0,0,0.372084,0,0)">
        <rect x="0" y="0" width="800" height="600" style="fill:none;"/>
        <g>
            <g transform="matrix(0.970162,0,0,2.27482,-70.178,-272.283)">
                <g transform="matrix(131.325,0,0,131.325,296.957,300)">
                    <path d="M0.245,-0.71L0.423,-0.71L0.669,0L0.471,0L0.428,-0.139L0.239,-0.139L0.197,0L-0.002,0L0.245,-0.71ZM0.397,-0.269L0.334,-0.489L0.268,-0.269L0.397,-0.269Z" style="fill:rgb(26,26,26);fill-rule:nonzero;"/>
                </g>
                <g transform="matrix(131.325,0,0,131.325,384.55,300)">
                    <path d="M0.061,0L0.061,-0.71L0.256,-0.71L0.256,-0.17L0.578,-0.17L0.578,0L0.061,0Z" style="fill:rgb(26,26,26);fill-rule:nonzero;"/>
                </g>
                <g transform="matrix(131.325,0,0,131.325,459.931,300)">
                    <path d="M0.371,-0.167C0.394,-0.167 0.413,-0.172 0.429,-0.182C0.445,-0.192 0.458,-0.205 0.468,-0.222C0.478,-0.238 0.485,-0.257 0.49,-0.278C0.495,-0.299 0.497,-0.322 0.497,-0.345L0.497,-0.71L0.692,-0.71L0.692,-0.345C0.692,-0.296 0.686,-0.25 0.673,-0.207C0.66,-0.164 0.641,-0.126 0.614,-0.095C0.587,-0.064 0.554,-0.039 0.514,-0.021C0.473,-0.003 0.426,0.006 0.371,0.006C0.314,0.006 0.266,-0.003 0.226,-0.023C0.185,-0.042 0.152,-0.067 0.126,-0.099C0.1,-0.131 0.081,-0.168 0.069,-0.211C0.057,-0.253 0.051,-0.298 0.051,-0.345L0.051,-0.71L0.246,-0.71L0.246,-0.345C0.246,-0.322 0.248,-0.299 0.253,-0.278C0.258,-0.256 0.265,-0.237 0.275,-0.221C0.285,-0.204 0.298,-0.191 0.314,-0.182C0.329,-0.172 0.348,-0.167 0.371,-0.167Z" style="fill:rgb(26,26,26);fill-rule:nonzero;"/>
                </g>
                <g transform="matrix(131.325,0,0,131.325,557.505,300)">
                    <path d="M0.256,-0.349L0.256,0L0.061,0L0.061,-0.71L0.213,-0.71L0.498,-0.349L0.498,-0.71L0.693,-0.71L0.693,0L0.538,0L0.256,-0.349Z" style="fill:rgb(26,26,26);fill-rule:nonzero;"/>
                </g>
                <g transform="matrix(131.325,0,0,131.325,656.524,300)">
                    <path d="M0.381,0.006C0.327,0.006 0.278,-0.004 0.234,-0.025C0.19,-0.046 0.152,-0.073 0.121,-0.107C0.09,-0.14 0.065,-0.179 0.048,-0.222C0.031,-0.265 0.022,-0.31 0.022,-0.356C0.022,-0.403 0.031,-0.448 0.049,-0.491C0.067,-0.534 0.092,-0.573 0.125,-0.606C0.157,-0.639 0.195,-0.665 0.24,-0.685C0.284,-0.704 0.332,-0.714 0.385,-0.714C0.439,-0.714 0.488,-0.704 0.532,-0.683C0.576,-0.662 0.614,-0.635 0.645,-0.601C0.676,-0.567 0.701,-0.528 0.718,-0.485C0.735,-0.442 0.743,-0.397 0.743,-0.352C0.743,-0.305 0.734,-0.261 0.716,-0.218C0.698,-0.174 0.673,-0.136 0.641,-0.104C0.609,-0.071 0.571,-0.044 0.527,-0.024C0.482,-0.004 0.434,0.006 0.381,0.006ZM0.22,-0.354C0.22,-0.33 0.223,-0.307 0.23,-0.285C0.237,-0.262 0.247,-0.242 0.26,-0.225C0.273,-0.208 0.29,-0.194 0.311,-0.183C0.331,-0.172 0.355,-0.167 0.383,-0.167C0.411,-0.167 0.435,-0.173 0.456,-0.184C0.477,-0.195 0.494,-0.209 0.507,-0.227C0.52,-0.244 0.529,-0.264 0.536,-0.287C0.542,-0.31 0.545,-0.333 0.545,-0.356C0.545,-0.38 0.542,-0.403 0.535,-0.426C0.528,-0.448 0.518,-0.468 0.505,-0.485C0.491,-0.501 0.474,-0.515 0.454,-0.526C0.433,-0.536 0.409,-0.541 0.382,-0.541C0.354,-0.541 0.33,-0.536 0.31,-0.525C0.289,-0.514 0.272,-0.5 0.259,-0.483C0.246,-0.465 0.236,-0.445 0.23,-0.423C0.223,-0.4 0.22,-0.377 0.22,-0.354Z" style="fill:rgb(26,26,26);fill-rule:nonzero;"/>
                </g>
                <g transform="matrix(131.325,0,0,131.325,756.199,300)">
                    <path d="M0.491,-0.478C0.471,-0.49 0.45,-0.501 0.429,-0.51C0.411,-0.518 0.391,-0.526 0.369,-0.533C0.346,-0.54 0.324,-0.543 0.303,-0.543C0.286,-0.543 0.272,-0.54 0.262,-0.535C0.251,-0.53 0.246,-0.521 0.246,-0.508C0.246,-0.499 0.249,-0.491 0.255,-0.485C0.261,-0.479 0.27,-0.474 0.281,-0.469C0.292,-0.464 0.306,-0.459 0.323,-0.454C0.339,-0.449 0.357,-0.444 0.378,-0.437C0.411,-0.427 0.44,-0.416 0.467,-0.404C0.493,-0.392 0.515,-0.378 0.534,-0.362C0.553,-0.345 0.567,-0.325 0.577,-0.302C0.587,-0.279 0.592,-0.25 0.592,-0.217C0.592,-0.174 0.584,-0.138 0.569,-0.11C0.553,-0.081 0.532,-0.057 0.507,-0.04C0.481,-0.023 0.452,-0.01 0.42,-0.003C0.387,0.005 0.355,0.009 0.322,0.009C0.296,0.009 0.269,0.007 0.242,0.003C0.215,-0.001 0.188,-0.007 0.161,-0.014C0.133,-0.021 0.108,-0.03 0.083,-0.04C0.057,-0.05 0.034,-0.061 0.013,-0.074L0.097,-0.245C0.12,-0.23 0.145,-0.217 0.17,-0.206C0.191,-0.196 0.216,-0.187 0.243,-0.179C0.27,-0.171 0.297,-0.167 0.325,-0.167C0.346,-0.167 0.361,-0.17 0.37,-0.176C0.378,-0.181 0.382,-0.189 0.382,-0.198C0.382,-0.208 0.378,-0.217 0.37,-0.224C0.361,-0.231 0.35,-0.237 0.335,-0.242C0.32,-0.247 0.304,-0.253 0.285,-0.258C0.266,-0.263 0.245,-0.27 0.224,-0.277C0.193,-0.288 0.166,-0.299 0.143,-0.312C0.12,-0.324 0.102,-0.338 0.087,-0.354C0.072,-0.369 0.062,-0.387 0.055,-0.407C0.047,-0.427 0.044,-0.45 0.044,-0.476C0.044,-0.515 0.051,-0.55 0.066,-0.58C0.08,-0.61 0.099,-0.635 0.124,-0.655C0.149,-0.675 0.177,-0.69 0.209,-0.701C0.24,-0.711 0.274,-0.716 0.309,-0.716C0.335,-0.716 0.36,-0.713 0.385,-0.709C0.41,-0.704 0.434,-0.697 0.457,-0.69C0.48,-0.682 0.501,-0.674 0.521,-0.665C0.541,-0.656 0.559,-0.647 0.575,-0.639L0.491,-0.478Z" style="fill:rgb(26,26,26);fill-rule:nonzero;"/>
                </g>
            </g>
            <g transform="matrix(0.258682,0,0,0.695225,184.57,192.662)">
                <path d="M0,-0.423C0.192,-0.23 -0.039,0.426 -0.656,1.583C-1.737,-1.658 -1.582,-2.006 0,-0.423" style="fill:rgb(239,0,187);fill-rule:nonzero;"/>
            </g>
            <g transform="matrix(0.258682,0,0,0.695225,150.388,151.426)">
                <path d="M0,339.771L24.054,294.691C38.152,268.269 37.445,236.407 22.189,210.636L-102.503,0L-149.964,84.573C-150.194,84.983 -150.188,85.484 -149.949,85.889L0,339.771Z" style="fill:rgb(239,0,187);fill-rule:nonzero;"/>
            </g>
            <g transform="matrix(0.258682,0,0,0.695225,187.911,386.796)">
                <path d="M0,84.832L-51.664,0L-344.67,0.255L-319.897,42.949C-304.867,68.852 -277.186,84.795 -247.238,84.799L0,84.832Z" style="fill:rgb(239,0,187);fill-rule:nonzero;"/>
            </g>
            <g transform="matrix(0.258682,0,0,0.695225,61.1173,270.839)">
                <path d="M0,255.652L99.304,253.552L246.165,0.008L197.272,0.003C167.035,0 139.082,16.091 123.9,42.241L0,255.652Z" style="fill:rgb(239,0,187);fill-rule:nonzero;"/>
            </g>
        </g>
    </g>
</svg>
